<svg xmlns="http://www.w3.org/2000/svg" viewBox="0 0 1280 720">
  <rect width="1280" height="720" fill="#EAE4D8"/>
  <rect width="1280" height="60" fill="#FFFFFF"/>
  <text x="40" y="38" font-family="Georgia, serif" font-size="22" font-style="italic" font-weight="bold" fill="#14100E">Flotaya</text>
  <text x="40" y="110" font-family="Georgia, serif" font-size="11" fill="#C9A227" letter-spacing="3">MONITOREO EN TIEMPO REAL</text>
  <rect x="40" y="130" width="285" height="120" rx="20" fill="#FFFFFF"/>
  <text x="60" y="158" font-family="Arial, sans-serif" font-size="10" fill="#C9A227" letter-spacing="2">PH</text>
  <text x="60" y="200" font-family="Georgia, serif" font-size="48" font-style="italic" fill="#14100E">7.4</text>
  <rect x="345" y="130" width="285" height="120" rx="20" fill="#FFFFFF"/>
  <text x="365" y="158" font-family="Arial, sans-serif" font-size="10" fill="#C9A227" letter-spacing="2">TURBIDEZ</text>
  <text x="365" y="200" font-family="Georgia, serif" font-size="48" font-style="italic" fill="#14100E">2.8</text>
  <rect x="650" y="130" width="285" height="120" rx="20" fill="#FFFFFF"/>
  <text x="670" y="158" font-family="Arial, sans-serif" font-size="10" fill="#C9A227" letter-spacing="2">TEMPERATURA</text>
  <text x="670" y="200" font-family="Georgia, serif" font-size="48" font-style="italic" fill="#14100E">24.8</text>
  <rect x="955" y="130" width="285" height="120" rx="20" fill="#FFFFFF"/>
  <text x="975" y="158" font-family="Arial, sans-serif" font-size="10" fill="#C9A227" letter-spacing="2">CONDUCTIVIDAD</text>
  <text x="975" y="200" font-family="Georgia, serif" font-size="48" font-style="italic" fill="#14100E">412</text>
  <rect x="40" y="280" width="1200" height="200" rx="20" fill="#FFFFFF"/>
  <text x="60" y="312" font-family="Arial, sans-serif" font-size="10" fill="#C9A227" letter-spacing="2">INTELIGENCIA ARTIFICIAL</text>
  <text x="60" y="340" font-family="Georgia, serif" font-size="28" font-style="italic" fill="#14100E">Diagnóstico ML</text>
  <rect x="60" y="360" width="260" height="80" rx="14" fill="#4A7C5908"/>
  <rect x="340" y="360" width="260" height="80" rx="14" fill="#C9A22708"/>
  <rect x="620" y="360" width="260" height="80" rx="14" fill="#4A7C5908"/>
  <rect x="900" y="360" width="260" height="80" rx="14" fill="#4A7C5908"/>
</svg>
